<?xml version="1.0" encoding="utf-8"?>
<!-- Generator: Adobe Illustrator 23.0.1, SVG Export Plug-In . SVG Version: 6.00 Build 0)  -->
<svg version="1.1" id="Capa_1" xmlns="http://www.w3.org/2000/svg" xmlns:xlink="http://www.w3.org/1999/xlink" x="0px" y="0px"
	 viewBox="0 0 152 148" style="enable-background:new 0 0 152 148;" xml:space="preserve">
<style type="text/css">
	.st0{fill:#37508F;}
	.st1{fill:#FFFFFF;}
</style>
<g>
	<path class="st0" d="M143.4,118.9c0,12.9-10.4,23.3-23.3,23.3h-90c-12.9,0-23.3-10.5-23.3-23.3V29c0-12.9,10.4-23.3,23.3-23.3H120
		c12.9,0,23.3,10.4,23.3,23.3L143.4,118.9L143.4,118.9z"/>
	<path class="st1" d="M100.5,142.3V89.9h17.6l2.6-20.4h-20.2v-13c0-5.9,1.6-9.9,10.1-9.9h10.8V28.1c-1.9-0.2-8.3-0.8-15.8-0.8
		c-15.6,0-26.3,9.5-26.3,27v15.1H61.8v20.4h17.6v52.4L100.5,142.3L100.5,142.3z"/>
</g>
</svg>
