<?xml version="1.0" encoding="utf-8"?>
<!-- Generator: Adobe Illustrator 23.0.1, SVG Export Plug-In . SVG Version: 6.00 Build 0)  -->
<svg version="1.1" id="Capa_1" xmlns="http://www.w3.org/2000/svg" xmlns:xlink="http://www.w3.org/1999/xlink" x="0px" y="0px"
	 viewBox="0 0 155 168" style="enable-background:new 0 0 155 168;" xml:space="preserve">
<style type="text/css">
	.st0{fill:#79BAE6;}
	.st1{fill:#FFFFFF;}
</style>
<g>
	<g>
		<path class="st0" d="M143.3,126.9c0,12.9-10.4,23.3-23.3,23.3H30.1c-12.9,0-23.3-10.4-23.3-23.3V37c0-12.9,10.4-23.3,23.3-23.3
			H120c12.9,0,23.3,10.4,23.3,23.3V126.9z"/>
	</g>
	<g>
		<path class="st1" d="M122.8,44.5L122.8,44.5L122.8,44.5z"/>
		<path class="st1" d="M119,54.2c-2.1,0.6-3.7,0.5-3.7,0.5l0.1-0.4c1.9-1.5,6.8-6.3,7.4-8.5c0.3-1-0.1-1.3-0.1-1.3l-6.2,2.6
			l-5.2,2.3l0,0c-3.6-3.8-9-6.2-15.1-6.2c-10.8,0-19.6,7.7-19.6,17.1c0,1.7,0.3,4.9,0.8,6.5c0,0.5,0-0.5,0,0c-7-0.2-15.9-3-23.8-7.1
			C37.9,51.8,37,46.3,37,46.3c-2.5,2.6-3.7,11.3-1.2,18.1c1.6,4.3,7.1,8.2,7.1,8.2l0,0c0,0-2.5,0-5-0.8c-2.6-0.9-3.5-1.7-3.5-1.7
			c-1.5,3.7,1.5,10.4,6.8,15.2c3.1,2.8,8.7,4.5,8.7,4.5L41.1,90c-0.5,8.6,18,13.7,18,13.7l0,0c-5.4,4.2-11.7,6.7-18.4,6.7
			c-3.5,0-6.9-0.5-10.1-1.5c8.9,7.3,20.3,12.4,32.8,11.7c33-1.7,51.6-30.1,52.5-58v0.1c0,0,1.5-0.8,4.9-4.1c3.3-3.3,5.4-7.2,5.4-7.2
			S121.1,53.7,119,54.2z"/>
		<path class="st1" d="M122.8,44.5C122.8,45,122.8,44.5,122.8,44.5L122.8,44.5z"/>
	</g>
</g>
</svg>
