<?xml version="1.0" encoding="utf-8"?>
<!-- Generator: Adobe Illustrator 23.0.1, SVG Export Plug-In . SVG Version: 6.00 Build 0)  -->
<svg version="1.1" id="Capa_1" xmlns="http://www.w3.org/2000/svg" xmlns:xlink="http://www.w3.org/1999/xlink" x="0px" y="0px"
	 viewBox="0 0 166.7 158.4" style="enable-background:new 0 0 166.7 158.4;" xml:space="preserve">
<style type="text/css">
	.st0{fill:#429A45;}
	.st1{fill:#FFFFFF;}
</style>
<g>
</g>
<g>
	<g>
		<path class="st0" d="M150.8,127.1c0,12.9-10.4,23.3-23.3,23.3H37.5c-12.9,0-23.3-10.4-23.3-23.3V37.2c0-12.9,10.5-23.3,23.3-23.3
			h89.9c12.9,0,23.3,10.4,23.3,23.3V127.1z"/>
	</g>
	<g>
		<g>
			<path class="st1" d="M82.5,134.5c-9.2,0-18.1-2.4-26.1-7l-20.4,7l4.2-21.6c-6.6-9-10-19.6-10-30.7c0-28.8,23.5-52.3,52.3-52.3
				c28.8,0,52.3,23.5,52.3,52.3C134.8,111,111.3,134.5,82.5,134.5z M57.3,118.9l1.6,1c7.1,4.5,15.3,6.8,23.6,6.8
				c24.5,0,44.5-20,44.5-44.5c0-24.5-20-44.5-44.5-44.5c-24.5,0-44.5,20-44.5,44.5c0,10,3.3,19.4,9.5,27.4l1.1,1.4l-2.3,11.8
				L57.3,118.9z"/>
		</g>
		<path class="st1" d="M56.1,62.1c0,0,3.1-5.4,5.6-5.7c2.5-0.3,5.7-0.3,6.6,1.3c0.9,1.6,4.8,11.1,4.8,11.1s0.7,1.6-0.4,3.2
			c-1,1.6-3.3,3.9-3.3,3.9s-1.3,1.6,0,3.4c1.3,1.7,3.3,4.9,7.4,9c4.1,4.1,12,7,12,7s1.1,0.2,1.8-0.6c0.7-0.7,4.6-5.6,4.6-5.6
			s1.2-1.6,3.3-0.7c2.1,0.9,11,5.4,11,5.4s1,0.4,1,2c0,1.6-0.6,5.5-2,6.8c-1.3,1.3-5.1,5.3-10.9,5.3c-5.8,0-19.5-4.7-26.8-12
			C63.5,88.8,57,81.4,55.5,74.7C54,67.9,54.2,64.9,56.1,62.1z"/>
	</g>
</g>
</svg>
