<?xml version="1.0" encoding="utf-8"?>
<!-- Generator: Adobe Illustrator 23.0.1, SVG Export Plug-In . SVG Version: 6.00 Build 0)  -->
<svg version="1.1" id="Capa_1" xmlns="http://www.w3.org/2000/svg" xmlns:xlink="http://www.w3.org/1999/xlink" x="0px" y="0px"
	 viewBox="0 0 50.6 54.9" style="enable-background:new 0 0 50.6 54.9;" xml:space="preserve">
<style type="text/css">
	.st0{fill:#F9911E;}
</style>
<g>
	<g>
		<path class="st0" d="M31,36.1c-1.4,0-2.5,1.1-2.5,2.5c0,1.4,1.1,2.5,2.5,2.5s2.5-1.1,2.5-2.5S32.4,36.1,31,36.1z M32.3,38.6
			c0,0.7-0.6,1.3-1.3,1.3c-0.7,0-1.3-0.6-1.3-1.3c0-0.7,0.6-1.3,1.3-1.3C31.8,37.3,32.3,37.9,32.3,38.6z"/>
		<path class="st0" d="M22.1,36.1c-1.4,0-2.5,1.1-2.5,2.5c0,1.4,1.1,2.5,2.5,2.5c1.4,0,2.5-1.1,2.5-2.5S23.5,36.1,22.1,36.1z
			 M22.1,39.9c-0.7,0-1.3-0.6-1.3-1.3c0-0.7,0.6-1.3,1.3-1.3c0.7,0,1.3,0.6,1.3,1.3C23.3,39.3,22.8,39.9,22.1,39.9z"/>
		<path class="st0" d="M33.2,21.4c0.3-0.7,0.4-1.4,0.4-2.1c0-3.4-2.7-6.1-6.1-6.1s-6.1,2.7-6.1,6.1c0,0.8,0.1,1.5,0.4,2.1h-4.5
			l-2.4-8.2H9v1.2h5l5.7,19.3h14.1L39,21.4H33.2z M27.5,14.5c2.7,0,4.8,2.2,4.8,4.8s-2.2,4.8-4.8,4.8s-4.8-2.2-4.8-4.8
			C22.7,16.6,24.9,14.5,27.5,14.5z M33,32.5H20.5l-2.9-9.8h4.8c1.1,1.6,2.9,2.7,5,2.7s3.9-1.1,5-2.7h4.5L33,32.5z"/>
		<polygon class="st0" points="26.9,22.2 28.2,22.2 28.2,19.9 30.4,19.9 30.4,18.7 28.2,18.7 28.2,16.4 26.9,16.4 26.9,18.7 
			24.6,18.7 24.6,19.9 26.9,19.9 		"/>
	</g>
</g>
</svg>
